<?xml version="1.0" encoding="UTF-8" standalone="no"?>
<!-- Generator: Adobe Illustrator 25.3.1, SVG Export Plug-In . SVG Version: 6.00 Build 0)  -->

<svg
   version="1.1"
   id="Layer_1"
   x="0px"
   y="0px"
   width="543.52399px"
   height="508.85101px"
   viewBox="0 0 543.52399 508.85101"
   enable-background="new 0 0 543.52399 508.85101"
   xml:space="preserve"
   sodipodi:docname="server - copia.svg"
   inkscape:version="1.3.2 (091e20e, 2023-11-25, custom)"
   xmlns:inkscape="http://www.inkscape.org/namespaces/inkscape"
   xmlns:sodipodi="http://sodipodi.sourceforge.net/DTD/sodipodi-0.dtd"
   xmlns="http://www.w3.org/2000/svg"
   xmlns:svg="http://www.w3.org/2000/svg"><defs
   id="defs40" /><sodipodi:namedview
   id="namedview40"
   pagecolor="#ffffff"
   bordercolor="#000000"
   borderopacity="0.25"
   inkscape:showpageshadow="2"
   inkscape:pageopacity="0.0"
   inkscape:pagecheckerboard="0"
   inkscape:deskcolor="#d1d1d1"
   inkscape:zoom="1.7217325"
   inkscape:cx="177.14715"
   inkscape:cy="263.9783"
   inkscape:window-width="2560"
   inkscape:window-height="1417"
   inkscape:window-x="-8"
   inkscape:window-y="0"
   inkscape:window-maximized="1"
   inkscape:current-layer="g40" />
<g
   id="g2">
	<path
   fill="#6885A9"
   d="M883.11401,267.181c0.08801,0.90201,0.146,1.80701,0.146,2.71701V267.181H883.11401z"
   id="path1" />
	<path
   fill="#231F20"
   d="M885.15302,269.897h-3.78497c0-0.76099-0.04498-1.58801-0.138-2.53201l-0.20398-2.077h4.12701v4.60901   H885.15302z"
   id="path2" />
</g>
<g
   id="g4">
	<path
   fill="#6885A9"
   d="M883.11401,171.61301c0.08801,0.901,0.146,1.806,0.146,2.716v-2.716H883.11401z"
   id="path3" />
	<path
   fill="#231F20"
   d="M885.15302,174.32899h-3.78497c0-0.761-0.04498-1.588-0.138-2.53l-0.20398-2.078h4.12701v4.608H885.15302z"
   id="path4" />
</g>
<path
   fill="#B2CBED"
   stroke="#231F20"
   stroke-width="4"
   stroke-linejoin="round"
   stroke-miterlimit="10"
   d="M883.11401,267.181  c0.08801,0.90201,0.146,1.80701,0.146,2.71701V267.181H883.11401z"
   id="path5" />
<path
   fill="#B2CBED"
   stroke="#231F20"
   stroke-width="4"
   stroke-linejoin="round"
   stroke-miterlimit="10"
   d="M883.11401,171.61301  c0.08801,0.901,0.146,1.806,0.146,2.716v-2.716H883.11401z"
   id="path6" />
<g
   id="g40">
	
	
	<path
   id="polygon6"
   style="opacity:0.4"
   d="M 305.28299,478.491 271.47198,471.892 268.11411,177.64915 541.10901,341.38 Z"
   sodipodi:nodetypes="ccccc" /><polygon
   fill="#CCD8EE"
   points="92.693,284.379 91.992,284.379 91.992,284.79099  "
   id="polygon8" />
	<polygon
   fill="#231F20"
   points="91.492,285.66501 91.492,283.879 94.531,283.879  "
   id="polygon9" />
	<polygon
   fill="#B5C5DC"
   points="91.992,356.29001 271.46899,462.599 271.47501,462.595 271.47501,391.09698 91.992,284.80099  "
   id="polygon10" />
	<polygon
   fill="#6885A9"
   points="450.95901,356.29001 271.48199,462.599 271.47501,462.595 271.47501,391.09698    450.95901,284.80099  "
   id="polygon11" />
	<polygon
   fill="#CCD8EE"
   points="92.693,200.05701 91.992,200.05701 91.992,200.47099  "
   id="polygon12" />
	
	
	
	
	
	<polygon
   fill="#CCD8EE"
   points="92.693,115.738 91.992,115.738 91.992,116.15  "
   id="polygon18" />
	
	
	
	
	
	<g
   id="g30">
		<g
   opacity="0.8"
   fill="#000000"
   id="g28">
			<polygon
   fill="#EAF4FF"
   points="155.927,391.58499 197.62801,349.88 155.83299,325.12799 114.134,366.827    "
   id="polygon27" />
		</g>
		<g
   opacity="0.8"
   fill="#000000"
   id="g29">
			<polygon
   fill="#EAF4FF"
   points="185.961,409.526 227.85899,367.63 206.864,355.194 164.966,397.091    "
   id="polygon28" />
		</g>
	</g>
	
	
	
	
	<g
   id="g35">
		<polygon
   fill="#000000"
   points="139.892,342.37201 121.992,331.76999 121.992,348.198 139.892,358.79999   "
   id="polygon34" />
	</g>
	<g
   id="g36">
		<polygon
   fill="#000000"
   points="164.24699,357.728 146.347,347.12601 146.347,363.552 164.24699,374.155   "
   id="polygon35" />
	</g>
	
	
	<g
   id="g39">
		<polygon
   fill="#000000"
   points="247.64799,416.91901 171.384,371.75299 171.384,364.82901 247.679,409.96399   "
   id="polygon38" />
	</g>
	<path
   fill="#231f20"
   d="m 458.95599,279.15253 -188.052,-110.898 -185.93299,110.33 -0.979,0.582 -0.003,81.68046 187.483,111.043 186.504,-110.461 0.98001,-0.582 z m -188.04,-101.603 178.07498,105.013 -355.03897,-0.004 z m -1.44098,281.54346 -175.483,-103.944 v -66.84 l 175.483,103.92599 z m 179.484,-103.944 -175.483,103.944 V 392.236 l 175.483,-103.926 z"
   id="path39"
   inkscape:transform-center-x="27.105865"
   inkscape:transform-center-y="3.6962544"
   sodipodi:nodetypes="ccccccccccccccccccccccc" /><polygon
   fill="#cdd9ee"
   points="93.952,114.995 270.91599,9.986 448.992,114.999 271.47501,220.131 "
   id="polygon14"
   transform="translate(0,167.15283)" /><polygon
   fill="#ffffff"
   points="136.248,123.133 299.108,26.611 270.91599,9.986 93.952,114.995 271.47501,220.131 284.79199,212.244 "
   id="polygon20"
   transform="translate(0,167.15283)" />
</g>
</svg>
